<?xml version="1.0" encoding="UTF-8"?>
<svg width="55mm" height="55mm" version="1.1" viewBox="0 0 55 55" xmlns="http://www.w3.org/2000/svg">
  <g transform="translate(-63.6 -76.7)">
    <rect x="75" y="76.7" width="34.1" height="55" fill="#fff" stroke-width=".197"/>
    <rect x="65.6" y="82.7" width="51.1" height="38" fill="#ffaff3" stroke-width=".258"/>
    <g fill="#282828">
      <path d="m82.4 85.6c0.223-0.162 0.382-0.278 0.527-0.383 0.27-0.0352 0.404 0.116 0.522 0.287 0.0754-0.0145 0.134-0.0272 0.209-0.0417 0.123 0.163 0.249 0.328 0.376 0.498 0.0537-0.01 0.165-0.0584 0.188-0.0324 0.325 0.374 0.878 0.518 1.1 0.981 0.0921 0.188 0.307 0.185 0.457 0.28 0.153 0.0964 0.168 0.317 0.382 0.371 0.119 0.0301 0.222 0.111 0.301 0.196 0.135 0.149 0.243 0.32 0.364 0.482 0.333-0.0995 0.287 0.246 0.48 0.337 0.167 0.0792 0.205 0.347 0.312 0.556 0.363 0.0123 0.429 0.366 0.659 0.559 0.346 0.287 0.661 0.61 0.862 1.02 0.201 0.411 0.643 0.616 0.901 0.981 0.374 0.532 0.823 1.01 1.21 1.54 0.548 0.741 0.802 1.62 0.776 2.62-0.255 0.318-0.547 0.678-0.868 1.07-0.215 0.0591-0.441 0.122-0.665 0.184-0.284-0.387-0.533-0.679-0.663-1.09-0.173-0.549-0.395-1.09-0.846-1.5-0.295-0.271-0.442-0.68-0.638-1.04-0.154-0.284-0.322-0.544-0.614-0.732-0.17-0.107-0.271-0.302-0.377-0.47-0.205-0.316-0.397-0.643-0.626-1 0.0066-0.0674 0.0214-0.192 0.039-0.358-0.11-0.0151-0.231-0.0344-0.401-0.0589-0.0018-0.0012-0.0441-0.0358-0.0744-0.0778-0.0801-0.119-0.134-0.26-0.234-0.36-0.172-0.173-0.197-0.424-0.311-0.625-0.093-0.165-0.287-0.271-0.56-0.51-0.0604-0.0293-0.446 0.277-0.574-0.188-0.0011 0.0176 0.0066-0.106 0.0138-0.232-0.0693 0.0113-0.141 0.0214-0.219 0.0336-0.115-0.185-0.265-0.342-0.357-0.563-0.191-0.454-0.402-0.929-0.987-1.07-0.0552-0.159-0.113-0.329-0.178-0.505-0.221-0.0975-0.443-0.192-0.66-0.285-0.0277-0.0886-0.0635-0.203-0.103-0.328 0.0756-0.139 0.171-0.325 0.277-0.529-0.0027-0.0021-0.0054-0.0041-0.0081-0.0062z"/>
      <path d="m97.4 92.7c0.0303 0.352 0.0847 0.55 0.0685 0.744-0.0431 0.543-0.107 1.08-0.116 1.62-3e-3 0.187 0.1 0.381 0.0806 0.562-0.021 0.187-0.133 0.362-0.23 0.619-0.133 0.103-0.324 0.252-0.548 0.437-0.334-0.125-0.663-0.339-1.02-0.254-0.35-0.242-0.696-0.493-1.04-0.752 0.0042-0.336 0.0246-0.67 0.0309-0.999 0.0046-0.259 0.0216-0.507-0.0781-0.772-0.123-0.327-0.0724-0.666 0.14-0.897-0.0124-0.261-0.107-0.542-0.0045-0.684 0.214-0.295 0.276-0.612 0.349-0.942 0.0888-0.399 0.099-0.831 0.448-1.13 0.0747-0.064 0.0784-0.208 0.11-0.317 0.103-0.364 0.139-0.774 0.346-1.07 0.2-0.286 0.328-0.577 0.482-0.873 0.0824-0.159 0.221-0.29 0.346-0.442 0.0174-0.231 0.0428-0.483 0.0723-0.752 0.205-0.118 0.406-0.233 0.598-0.338-0.126-0.318-0.0162-0.664 0.201-0.818 0.307-0.217 0.406-0.515 0.601-0.778 0.084-0.115 0.209-0.204 0.348-0.334 0.0019-0.0463 0.0094-0.159 0.0185-0.308 0.276-0.19 0.518-0.45 0.696-0.777 0.159-0.293 0.358-0.564 0.565-0.828 0.225-0.286 0.401-0.634 0.797-0.742 0.108-0.0295 0.167-0.234 0.263-0.583 0.5-0.0954 0.649-0.597 1.08-0.856 0.422 0.141 0.504-0.42 0.884-0.5 0.348-0.071 0.668-0.264 1.01-0.39 0.196 0.082 0.413 0.173 0.644 0.279 0.0298 0.111 0.072 0.251 0.115 0.405 0.07 0.0312 0.158 0.0732 0.251 0.119-0.01 0.0356-8e-3 0.0894-0.0303 0.0989-0.181 0.0776-0.367 0.141-0.544 0.229-0.0593 0.0272-0.121 0.0778-0.15 0.137-0.139 0.267-0.263 0.546-0.385 0.833-0.281 0.0982-0.584 0.212-0.904 0.347-0.0198 0.261-0.031 0.512-0.0386 0.75-0.102 0.12-0.206 0.249-0.314 0.384-0.232 0.0908-0.486 0.197-0.757 0.319-0.0139 0.0682-0.0258 0.169-0.058 0.257-0.056 0.153-0.102 0.317-0.186 0.448-0.341 0.528-0.667 1.07-0.963 1.62-0.12 0.0721-0.231 0.139-0.336 0.204-0.445 0.742-0.664 1.59-1.2 2.39 0 0 0.0214 0.103 0.0527 0.234-0.0778 0.0705-0.2 0.183-0.341 0.315-0.0664 0.199-0.137 0.435-0.218 0.705-0.0889 0.293-0.197 0.58-0.247 0.88-0.0413 0.247-0.391 0.39-0.226 0.697-0.3 0.201-0.244 0.549-0.335 0.83-0.0857 0.253-0.0321 0.557-0.321 0.676 6.94e-4 -8.17e-4 0.0023-0.0021 0.0029-3e-3z"/>
      <path d="m90.1 117c-0.269-7e-3 -0.513-8e-3 -0.738-8e-3 -0.223-0.234-0.198-0.499 0.0788-0.9 0.253-0.154 0.566-0.336 0.949-0.554 0.0782-0.273 0.16-0.541 0.244-0.828 0.198-0.0212 0.397-0.0414 0.596-0.0618 0.269-0.149 0.269-0.433 0.475-0.688 0.371-0.178 0.919-0.44 1.39-0.672 0.0585-3e-3 0.128-6e-3 0.204-9e-3 0.1-5e-3 0.21-0.01 0.32-0.0159 0.0447-0.265 0.0819-0.516 0.127-0.781 0.357-0.217 0.762-0.469 1.17-0.734 0.184-0.225 0.422-0.524 0.673-0.861 0.355-0.198 0.67-0.528 0.99-0.852 0.262-0.263 0.517-0.531 0.762-0.808 0.501-0.573 0.952-1.15 1.2-1.78 0.16-0.439 0.243-0.884 0.142-1.23 0.0155-0.0548 0.0216-0.109 0.019-0.162 0.0356-0.479-0.571-0.744-0.96-1.01-0.0706-0.0469-0.141-0.0951-0.21-0.147-0.228-0.174-0.615-0.106-0.912-0.116-0.247-0.142-0.527-0.281-0.853-0.426-0.395-0.799-0.158-1.52 0.0646-2.35 0.17-0.0846 0.382-0.182 0.612-0.284 0.637 0.103 1.34 0.264 2.07 0.561 0.352 0.143 0.698 0.34 1.02 0.588 0.376 0.281 0.688 0.648 0.913 1.07 0.27 0.506 0.575 1.01 0.713 1.61 0.0359 0.23 0.0436 0.457 0.0124 0.675 0.166 0.798-0.0509 1.55-0.357 2.17-0.188 0.398-0.384 0.763-0.54 1.15-0.0555 0.136-0.182 0.266-0.297 0.363-0.308 0.256-0.564 0.543-0.813 0.826h-1e-6c-0.38 0.436-0.751 0.886-1.25 1.15-0.232 0.612-0.952 0.697-1.29 1.19-0.319 0.46-0.974 0.503-1.22 1.04-0.334 0.185-0.67 0.362-1 0.539-0.316 0.17-0.217 0.116-0.533 0.285-0.346 0.185-0.738 0.29-0.978 0.657-0.0614 0.0915-0.218 0.143-0.332 0.197-0.742 0.364-1.64 0.788-2.44 1.21-0.0057 3e-3 -0.0114 5e-3 -0.0171 8e-3z"/>
      <path d="m81.8 126c-0.15 0.0228-0.278 0.0417-0.374 0.0572-0.0285 0.214-0.0526 0.422-0.0743 0.624-0.151 0.0305-0.221 0.0439-0.372 0.0745-0.122 0.32-0.243 0.655-0.36 1-0.167-0.057-0.34-0.117-0.546-0.186-0.0692-0.269-0.115-0.474-0.164-0.68 0.011-0.151 0.0074-0.199 0.0203-0.237 0.276-0.807 0.598-1.57 0.762-2.42 0.1-0.53 0.392-1.03 0.622-1.53 0.196-0.425 0.441-0.823 0.534-1.3 0.0316-0.162 0.111-0.32 0.19-0.468 0.415-0.794 0.812-1.59 1.24-2.39 0.404-0.754 0.838-1.49 1.28-2.24 0.571-0.96 1.23-1.88 1.84-2.84 0.859-1.35 1.87-2.6 2.72-3.96 0.344-0.546 0.67-1.11 1.05-1.63 0.375-0.525 0.678-1.1 0.98-1.67 0.228-0.427 0.49-0.793 0.918-1.03 0.484 0.223 0.909 0.507 1.29 0.894-0.799-12.6 0.883 13.9 0.0838 1.32-0.175 0.453-0.414 1.09-0.89 1.62-0.0738 0.378-0.559 0.563-0.523 0.995-0.238 0.3-0.485 0.592-0.707 0.904-0.223 0.315-0.416 0.644-0.62 0.968-0.0696 0.111-0.115 0.237-0.203 0.324-0.756 0.751-1.26 1.7-1.91 2.52-0.339 0.427-0.643 0.872-0.878 1.37-0.22 0.468-0.58 0.806-1.02 1.02-0.0464 0.254-0.0513 0.503-0.139 0.72-0.0913 0.223-0.269 0.414-0.412 0.622-0.0677-2e-3 -0.145-7e-3 -0.227-9e-3 -0.114 0.155-0.237 0.322-0.372 0.516 0.164 0.523-0.202 0.904-0.489 1.28-0.19 0.245-0.529 0.344-0.658 0.696-0.11 0.303-0.28 0.586-0.42 0.89-0.327 0.253-0.657 0.53-0.73 1 0.0689 0.034 0.137 0.0655 0.214 0.104-0.117 0.334-0.449 0.412-0.634 0.651-0.542 0.708-0.621 1.64-1.01 2.39-5.09e-4 6e-3 -0.0015 0.0111-0.0022 0.0167z"/>
      <path d="m74.5 99.5c-0.0996-0.0901-0.188-0.167-0.266-0.231-6e-3 -1.5e-5 -0.0121-1.31e-4 -0.0182-3.21e-4 -0.0867-0.0055-0.189-0.0354-0.264 0.0064-0.572 0.319-0.984 0.234-1.52-0.102-0.0242-0.0165-0.0635-0.0056-0.0961-0.0054-0.325 0.135-0.362 0.164-0.578 0.509-0.349 0.0922-0.688-0.0566-1.04-0.0533-0.349 6.03e-4 -0.719-0.0049-1.06 0.107-0.0433-0.0872-0.105-0.156-0.097-0.212 0.0436-0.33 0.113-0.645 0.189-0.941 0.194-0.107 0.361-0.18 0.518-0.274 0.128-0.077 0.238-0.255 0.359-0.259 0.332-0.0101 0.55-0.247 0.845-0.311 0.103-0.0225 0.223 0.0451 0.337 0.0769 0.765-0.492 1.73-0.563 2.7-0.416 0.0208 0.0143 0.0428 0.0295 0.0661 0.0456 0.0898 0.0634 0.182 0.13 0.282 0.205 0.62-0.226 1.28-0.0489 1.9 0.0969 0.275 0.0655 0.533 0.213 0.805 0.258 0.637 0.112 1.23 0.349 1.79 0.591 0.435 0.18 0.862 0.364 1.3 0.501 0.495 0.361 1.12 0.35 1.62 0.605 0.435 0.222 0.912 0.229 1.36 0.235 0.0495 0.0014 0.0988 0.0029 0.148 0.0047 0.0644 0.0026 0.133-0.0096 0.195 4e-3 0.879 0.174 1.8 0.0739 2.67-0.16 0.306-0.0831 0.641-0.0593 0.99-0.116 0.179 0.142 0.418 0.323 0.716 0.518 0.336 0.384 0.533 0.916 0.555 1.58-0.137 0.17-0.322 0.388-0.553 0.633-0.125-0.0104-0.295-0.0722-0.437-0.0365-0.644 0.172-1.31 0.13-1.98 0.238-0.248 0.0403-0.509 0.0972-0.756 0.059-0.589-0.0881-1.17-0.132-1.69-0.0684-0.222-0.12-0.373-0.215-0.414-0.241-0.0103-2e-3 -0.0205-4e-3 -0.0307-6e-3 -0.527-0.104-1-0.231-1.41-0.362-0.855-0.276-1.76-0.456-2.47-0.983-0.319-0.0526-0.602-0.193-0.881-0.329-0.277-0.13-0.554-0.257-0.859-0.288-0.87-0.43-1.8-0.553-2.61-0.852-0.125-0.0428-0.26-0.03-0.351-0.0368 0.0102 9.44e-4 0.0203 0.0019 0.0305 0.0029z"/>
    </g>
  </g>
</svg>
