<?xml version="1.0" encoding="UTF-8"?>
<svg width="84.5" height="72.4" version="1.1" viewBox="58.3 66 84.5 72.4" xmlns="http://www.w3.org/2000/svg">
  <path d="m130 68.8c-0.125 1.06-0.209 1.75-0.293 2.45-0.727 0.843-1.69 0.836-2.68 0.736-0.169 0.228-0.337 0.466-0.506 0.694-0.975-0.0643-1.96-0.126-2.97-0.193-0.131 0.177-0.3 0.612-0.465 0.612-2.36-0.0165-4.58 1.2-6.96 0.707-0.968-0.2-1.61 0.426-2.41 0.626-0.815 0.205-1.67-0.291-2.51 0.197-0.468 0.272-1.07 0.372-1.62 0.397-0.951 0.0327-1.9-0.0679-2.86-0.106-0.615 1.21-1.76 0.247-2.66 0.598-0.781 0.299-1.89-0.226-2.98-0.406-1.1 1.04-2.61 0.399-3.99 0.631-2.07 0.354-4.17 0.544-6.27 0.214-2.12-0.344-4.13 0.522-6.23 0.483-3.06-0.0665-6.12 0.238-9.18 0.286-4.32 0.0661-8.4-1.03-12.3-3.21-0.63-1.52-1.28-3.09-2.06-4.97 0.302-0.767 0.66-1.68 0.974-2.48 2.31-0.0854 4.17-0.243 6.16 0.225 2.68 0.637 5.43 1.12 8.31 0.644 1.89-0.31 3.92 0.148 5.88 0.356 1.55 0.168 3.04 0.246 4.6-0.207 0.902-0.268 1.95-0.129 2.91-0.0619 1.82 0.109 3.64 0.291 5.7 0.454 0.24 0.177 0.675 0.511 1.26 0.952 0.38-0.292 0.807-0.605 1.4-1.05 0.01-0.0024 0.267-0.0464 0.517-0.037 0.691 0.0428 1.39 0.217 2.07 0.16 1.17-0.0985 2.2 0.427 3.3 0.573 0.907 0.123 1.88-0.194 3.61-0.412 0.293-0.105 0.308-1.97 2.45-1.21-0.0631-0.046 0.379 0.276 0.833 0.605 0.169-0.228 0.349-0.459 0.542-0.714 1.05 0.118 2.1 0.0701 3.21 0.348 2.29 0.57 4.69 1.14 7.04-0.171 0.762 0.242 1.57 0.503 2.42 0.763 1.05-0.377 2.11-0.767 3.14-1.14 0.476 0.169 0.883 0.314 1.53 0.544 0.265 0.562 0.64 1.31 1.04 2.12z"/>
  <path d="m75.5 90.9c-1.39 0.444-2.15 0.813-2.96 0.919-2.27 0.306-4.55 0.47-6.82 0.776-0.787 0.107-1.54 0.606-2.32 0.633-0.803 0.0259-1.62-0.299-2.75-0.542-0.487-0.437-1.23-1.11-2.08-1.87 0.393-1.32 1.12-2.61 0.628-3.94 0.851-1.45 1.63-2.77 2.48-4.22 1.29-0.139 2.57-0.239 3.82-0.411 0.979-0.136 1.93-0.234 2.85-0.785 1.13-0.679 2.41-0.748 3.44-0.161 0.956-0.258 1.9-0.847 2.51-0.603 1.27 0.511 2.5 0.428 3.77 0.348 1.55-0.095 3.09-0.541 4.59 0.333 0.32 0.188 0.84 0.0262 1.27-3e-5 1.43-0.0916 2.92-0.51 4.26-0.206 1.28 0.291 2.5 0.308 3.76 0.378 0.679 0.0374 1.35 0.304 2.08 0.485 0.829-0.315 1.73-0.646 2.69-1.01 0.764 0.493 1.48 0.943 2.2 1.4 0.845-0.985 2.19-1.27 3.11-0.86 1.3 0.582 2.5 0.308 3.74 0.387 0.549 0.0303 1.09 0.24 1.81 0.4 0.166-0.101 0.517-0.302 1.02-0.605 1.2 0.447 2.57 0.612 3.99 0.39 1.27-0.2 2.56-0.26 3.85-0.309 1.41-0.0528 2.83-0.435 4.18 0.38 0.368 0.221 1.11-0.149 2.31-0.834 1.61 1.09 3.36 0.085 5.25 0.409 0.871 1.46 2.5 0.0177 3.85 0.663 1.23 0.599 2.68 0.729 4.05 1.06 0.472 0.707 0.945 1.39 1.51 2.23-0.143 0.413-0.312 0.944-0.515 1.52 0.167 0.24 0.38 0.562 0.602 0.894-0.115 0.0938-0.235 0.267-0.334 0.252-0.814-0.125-1.61-0.319-2.43-0.434-0.268-0.0448-0.6-0.023-0.846 0.0936-1.14 0.518-2.26 1.07-3.46 1.64-1.21-0.377-2.51-0.789-3.9-1.22-0.82 0.706-1.56 1.35-2.32 2-0.684 0.0624-1.4 0.133-2.15 0.202-1.01-0.396-2.06-0.804-3.24-1.27-0.258 0.136-0.611 0.357-0.988 0.486-0.653 0.224-1.32 0.498-1.99 0.571-2.7 0.292-5.41 0.523-8.12 0.774-0.539-0.22-1.06-0.439-1.53-0.635-3.7 0.117-7.35 0.977-11.4 0.465 0 0-0.354 0.241-0.802 0.557-0.481-0.177-1-0.366-1.82-0.671-0.835 0.0742-1.96 0.192-3.1 0.29-1.29 0.109-2.58 0.118-3.84 0.329-1.04 0.173-2.08-0.886-3.09 0.0602-1.2-0.827-2.5-0.238-3.75-0.267-1.11-0.0411-2.3 0.454-3.08-0.48z"/>
  <path d="m136 98.9c0.264 0.548 0.438 0.921 0.611 1.28 0.738-0.149 1.43-0.293 2.13-0.437 0.198 0.392 0.378 0.757 0.631 1.27 1.16 0.0992 2.4 0.204 3.64 0.308-0.0369 0.665-0.0786 1.35-0.121 2.17-0.707 0.444-1.52 0.942-2.03 1.27-0.493 0.116-0.635 0.18-0.771 0.173-2.8-0.147-5.58-0.389-8.41 0.178-1.75 0.355-3.64 0.0402-5.46-0.01-1.55-0.0438-3.09-0.266-4.63 0.187-0.524 0.155-1.11 0.145-1.66 0.124-2.95-0.0883-5.89 6e-3 -8.84 0.0881-2.8 0.0735-5.61 0.0984-8.42 0.166-3.64 0.098-7.31-0.0509-11 0.111-5.19 0.232-10.4-0.0464-15.6 0.442-2.09 0.198-4.19 0.496-6.3 0.575-2.11 0.0792-4.21 0.499-6.3 0.903-1.57 0.3-3.06 0.364-4.56-0.361-0.405-1.96-0.528-3.88-0.293-5.91 0.875-0.874 1.85-1.85 3.27-3.27 1.53-0.509 3.67-1.25 6.01-1.03 1.13-0.638 2.59 0.389 3.64-0.695 1.26 0.0311 2.52 0.112 3.78 0.0731 1.27-0.0407 2.52-0.2 3.78-0.311 0.43-0.038 0.855-0.182 1.26-0.111 3.49 0.601 7.02 0.046 10.5 0.291 1.82 0.122 3.62 0.117 5.44-0.187 1.72-0.294 3.35 0.139 4.77 1.1 0.8-0.368 1.52-0.856 2.3-1.01 0.808-0.156 1.68 0.0368 2.54 0.0889 0.116 0.222 0.242 0.479 0.384 0.749 0.668 0.065 1.34 0.136 2.16 0.207 1.24-1.54 3.02-1.06 4.64-0.799 1.06 0.18 1.92 1.13 3.2 0.944 1.1-0.165 2.24-0.0785 3.4-0.115 1.3 0.689 2.65 1.36 4.24 0.871 5e-3 -0.292 4e-3 -0.576 0.0118-0.904 1.23-0.122 1.96 0.918 2.98 1.21 3.01 0.843 6.12-0.13 9.02 0.383z"/>
  <path d="m130 114c0.685 0.651 1.29 1.22 1.86 1.76 0.0983 1.22-0.487 1.93-1.94 2.48-0.872-0.123-2.12-0.311-3.46-0.505-0.713 0.651-1.42 1.28-2.17 1.97-0.553-0.378-1.11-0.759-1.67-1.14-0.982-0.143-1.51 0.727-2.53 1.05-1.45-0.309-3.12-0.667-4.96-1.07-0.372-0.289-0.898-0.71-1.42-1.12-0.692 0.766-1.23 1.38-1.85 2.05-1.44-0.185-2.84-0.356-4.53-0.572-0.948 0.222-2.17 0.513-3.56 0.846-1.34-0.321-2.87-0.208-4.42-0.191-5.73 0.0461-11.5-0.231-17.2 0.684-3.03-0.771-5.77 1-8.72 1.11-1.17 0.0338-2.3 1.04-3.36 1.55-1.19-0.0177-2.3-0.0389-3.64-0.0587-2.36-2.09-2.46-5.23-2.72-8.32 0.431-0.554 0.872-1.1 1.42-1.81 1.87-0.508 3.9-1.07 5.94-1.61 2.05-0.546 4.22-0.673 6.22-0.364 1.74 0.265 3.38-0.454 5.04 0.027 2.71-0.931 5.58 0.0277 8.32-0.722 0.38-0.103 0.87 0.0156 1.27 0.153 2.73 0.969 5.68-0.13 8.41 0.829 1.79-1.06 3.62 0.511 5.41-0.0798 1.67-0.55 3.37 0.865 5.01-0.145 1.83 0.341 3.65 0.705 5.48 1.02 1.24 0.219 2.46 0.769 3.77 0.18 0.331-0.143 0.837 0.0461 1.24 0.133 2.82 0.573 5.61 1.18 8.7 1.85z"/>
  <path d="m115 127c0.543 0.297 0.917 0.51 1.33 0.735 0.397-0.0473 0.914 0.0401 1.24-0.165 2.37-1.48 4.58-1.06 6.72 0.467 0.0982 0.0752 0.272 0.0523 0.412 0.0683 1.55-0.378 1.55-0.378 2.84-1.56 1.62-0.0578 2.93 0.867 4.36 1.29 1.43 0.434 2.86 0.981 4.35 1.14 0.0208 0.38 0.138 0.72 0.0177 0.906-0.686 1.08-1.42 2.13-2.07 3.07-0.823 0.105-1.5 0.149-2.16 0.301-0.541 0.123-1.11 0.656-1.54 0.536-1.18-0.327-2.16 0.366-3.25 0.384-0.378 7e-3 -0.766-0.336-1.16-0.531-3.02 1.39-6.27 1.51-9.66 1.47-0.368-0.206-0.864-0.476-1.35-0.738-1.98 1.3-4.27 1.33-6.49 1.59-0.973 0.11-2-0.0713-2.94 0.156-3.9 0.901-7.88 0.532-11.8 0.938-2.26-0.528-4.5 0.42-6.73 0.0791-2.16-0.325-4.24 0.264-6.34 0.508-0.281 0.032-0.569 0.12-0.851 0.102-3.96-0.188-7.9 0.0461-11.8 0.322-1.38 0.0991-2.8-0.291-4.32-0.464-0.624-0.769-1.32-1.63-2.25-2.77-0.808-1.84-0.769-4.05-0.0953-6.53 0.657-0.459 1.46-1.01 2.44-1.69 0.393 0.173 0.895 0.579 1.39 0.579 2.25-0.0357 4.46 0.552 6.72 0.332 0.842-0.0819 1.72-0.259 2.54-0.102 1.98 0.368 3.92 0.369 5.59-0.175 0.8 0.347 1.31 0.577 1.48 0.66 1.91-0.0102 3.46-0.0323 5.01-0.02 3.09 0.0245 6.18-0.669 9.26 0.0734 2.21-0.631 4.52 0.146 6.72-0.579 3.65 0.188 7.28-0.707 11-0.267 0.556 0.0562 1.13-0.092 1.52-0.125z"/>
</svg>
