<?xml version="1.0" encoding="UTF-8"?>
<svg width="442" height="110" version="1.1" viewBox=".0586 86.6 442 110" xmlns="http://www.w3.org/2000/svg">
  <g fill="#282828">
    <g id="gleam">
      <path d="m36.8 185c1.34-1.04 2.43-2.04 4.02-2.03 0.63-0.54 1.54-0.42 2.18-0.8 3.26-1.95 7.16-2.46 10.4-4.57 0.25-0.16 0.66-0.06 1.19-0.1 0.78-0.74 1.68-1.59 2.3-2.18 3.11-1.81 6.03-3.17 8.37-5.54 1.25-1.27 2.82-2.2 4.1-3.48 1.36-1.37 2.53-2.86 3.64-4.41 0.72-1 1.42-2.01 2.3-3.27 0.02-0.13 0.08-0.57 0.14-1.02 1.56-1.8 1.89-4.25 3.21-6.18 0.06-2.12 1.23-3.99 1.56-5.86-0.63-0.74-1.21-0.82-1.72-0.54-1.65 0.93-3.36 1.72-5.16 2.33-0.42 0.14-0.84 0.33-1.2 0.57-0.92 0.62-1.92 1.18-2.7 1.96-0.78 0.79-2.16 0.02-2.54 1.23-0.95-0.05-1.74-0.08-2.64-0.13-0.27-0.24-0.58-0.58-0.94-0.83-0.8-0.55-1.1-1.46-1.41-2.26-0.76-2-1.04-4.12-0.72-6.58 0.29-0.38 0.93-0.94 1.19-1.64 1.11-2.98 3.23-5.32 4.93-7.92 0.31-0.47 0.67-0.95 1.12-1.26 1.82-1.28 3.31-3.02 5.55-3.92h1.52c0.22 0.14 0.44 0.23 0.6 0.38 0.74 0.7 1.47 1.41 2.19 2.14 0.63 0.65 1.48 1.23 1.77 2.01 0.36 0.99 1.41 1.42 1.61 2.53 0.1 0.56 0.94 0.94 1.31 1.5 0.52 0.77 1.53 0.84 2.04 1.69 0.37 0.62 1.15 0.99 1.88 1.57 0.04 1.72 0.09 3.51 0.11 5.31 0.02 1.81 0 3.63 0 5.31-1.61 2.47-2.3 5.18-3.39 7.71-0.44 1.02-0.96 1.99-1.35 3.02-0.35 0.94-1.12 1.34-1.91 1.75-0.24 0.49-0.49 0.99-0.74 1.5 0.1 0.15 0.22 0.34 0.35 0.54-0.84 1.39-1.58 2.88-3.16 3.63-0.26 1.65-2.04 1.89-2.86 3.07-0.76 1.1-1.82 1.99-2.76 2.96-0.06 0.07-0.18 0.08-0.28 0.12-0.19-0.12-0.39-0.23-0.87-0.52-0.61 0.71-1.54 1.38-1.85 2.27-0.36 1.05-1.74 1.06-1.84 2.24-0.83 0.56-2.08-0.12-2.79 0.85-1.17 0.1-2.26 0.31-2.54 1.71-0.8 0.58-1.61 1.16-2.46 1.77-0.6 0.04-1.26 0.07-1.92 0.11-0.18 0.35-0.34 0.65-0.48 0.93-1.01 0.41-2.07 0.73-3.02 1.25-0.96 0.54-2.13 0.45-3 1.39-0.71 0.76-1.93 1.05-2.95 1.56-0.36-0.14-0.76-0.3-1.23-0.49-0.53 0.44-1.05 0.87-1.64 1.36h-1.85c-0.59 0.49-1.11 0.92-1.61 1.34-0.6 0.03-1.17 0.07-1.79 0.1-0.4 0.32-0.83 0.69-1.29 1.02-0.17 0.12-0.41 0.16-0.61 0.23-1.47 0.46-2.92 1.16-4.42 1.31-1.46 0.14-2.65 1.55-4.02 0.64-1.14 0.55-2.03 0.99-3.12 1.52h-2.82c-0.49 0.4-0.93 0.75-1.48 1.21-1.28 0.25-2.84-0.28-4.11 0.72-1.01 0.01-2.03 0.06-3.04 0.01-0.63-0.03-1.25-0.31-1.87-0.3-0.53 0.01-1.06 0.28-1.88 0.52-0.28 0.22-0.81 0.64-1.44 1.14h-4.35c-1.03-0.51-2.12-1.05-3.17-1.56 0.17-0.44 0.33-0.85 0.55-1.4-0.7-0.24-1.29-0.44-1.9-0.65 3.26-1.27 3.26-1.27 5.18-0.49 0.76-0.04 1.11-0.71 1.75-1.14 1.3-0.26 2.72-0.77 4.12-0.75 1.5 0.02 2.78-0.9 4.25-0.74 1.3-0.86 2.79-0.64 4.23-0.78 0.86-0.09 1.82-0.32 2.49-0.81 0.92-0.67 2.06-0.05 2.88-0.76 0.76-0.66 1.76-0.15 2.58-0.57 0.99-0.5 1.9-1.2 3.1-1.17 1.13 0.03 2.09-0.65 3.23-0.79 0.89-0.08 1.81-0.65 2.95-0.59zm40.7-47.2c-0.59-1.47-1.07-2.57-1.46-3.7-0.17-0.48-0.37-0.78-0.94-0.74-2.2 1.74-3.82 3.99-5.09 6.49-0.11 0.22 0.09 0.59 0.18 1.07 2.44-1.05 4.76-2.03 7.31-3.12z"/>
      <path d="m104 148c-0.47 0.13-0.77 0.22-1.08 0.31 0.02 0.6 0.04 1.16 0.06 1.72-0.33 0.1-0.64 0.19-1.07 0.32-0.23 0.89-0.48 1.84-0.73 2.8-0.51-0.12-1.05-0.24-1.68-0.38-0.25-0.61-0.53-1.31-0.71-1.75-0.02-0.4-0.06-0.52-0.03-0.63 0.49-2.17 1.05-4.3 0.97-6.59-0.05-1.41 0.45-2.85 0.74-4.26 0.24-1.2 0.62-2.38 0.47-3.64-0.05-0.43 0.04-0.88 0.12-1.32 0.46-2.29 0.78-4.6 1.11-6.91 0.31-2.2 0.67-4.4 0.98-6.6 0.41-2.86 1.01-5.7 1.36-8.56 0.51-4.09 1.42-8.11 1.72-12.2 0.12-1.66 0.17-3.33 0.38-4.99s0.17-3.36 0.13-5.04c-0.03-1.27 0.12-2.44 0.88-3.51 1.59-0.06 3.1 0.1 4.66 0.56 0.57 0.8 1.2 1.69 2.12 2.98 0.19 1.26 0.49 3.03 0 4.83 0.35 0.97-0.65 1.97 0.06 2.93-0.19 0.98-0.42 1.95-0.56 2.94s-0.18 2-0.26 2.99c-0.03 0.33 0.03 0.7-0.08 1-0.93 2.65-0.97 5.47-1.62 8.17-0.34 1.41-0.57 2.81-0.57 4.27 0 1.38-0.55 2.59-1.5 3.58 0.18 0.67 0.47 1.3 0.48 1.93 0.01 0.65-0.25 1.31-0.4 1.97-0.19 0.06-0.41 0.13-0.64 0.2-0.14 0.51-0.28 1.03-0.45 1.66 1.04 1.17 0.43 2.5 0.01 3.73-0.28 0.81-1.14 1.35-1.16 2.37-0.02 0.88-0.23 1.76-0.36 2.67-0.71 0.92-1.41 1.89-1.24 3.19 0.23 0.04 0.45 0.08 0.7 0.13-0.07 0.97-0.98 1.41-1.34 2.17-1.03 2.25-0.68 4.8-1.47 7z"/>
      <path d="m149 148c0.03 0.5 0.82 0.85 0.28 1.46-1.57 0.56-3.11 1.25-4.74 0.99-0.63 0.5-1.16 0.92-1.74 1.37-0.43 0-0.88-0.01-1.34 0-1.02 0.02-2.19-0.26-3.02 0.15-0.98 0.49-2.08 0.23-2.89 0.69-1.21 0.7-2.42 0.37-3.33 0.47-2.33-0.22-3.78-1.86-5.77-2.24-0.64-0.12-1.25-0.42-2.08-0.7-1.08-1.02-2.32-2.18-3.38-3.18-0.1-0.99-0.17-1.66-0.23-2.28-0.38-0.48-0.73-0.92-1.1-1.39 0-0.88-0.02-1.78 0.02-2.67 0.01-0.2 0.21-0.39 0.33-0.59-0.15-0.82-0.91-1.59-0.21-2.47 0.55-0.68 0.4-1.5 0.48-2.27 1.19-2.1 3.12-3.79 3.46-6.17 1.6-1.44 3.12-2.76 4.58-4.14 1.09-1.03 2.24-1.78 3.83-1.8 0.62-0.01 1.25-0.41 1.91-0.64 1.73 0.33 3.36 0.97 5.19 2.71 0.16 0.23 0.73 1.05 1.35 1.92-0.32 1.53 1.23 2.86 0.52 4.65-0.25 0.3-0.62 0.72-1.04 1.21 0.71 0.83 0.43 1.83 0.49 2.66-2.06 2.68-4.6 4.47-7.44 5.91-1.36 0.69-2.6 1.6-3.92 2.43 0.22 0.23 0.45 0.47 0.8 0.85 1.68 0.17 3.48 0.13 5.29 0.14 1.25 0 2.5 0.02 3.74-0.08 0.64-0.05 1.32-0.58 1.88-0.45s0.96 0.3 1.48-0.07c0.59-0.42 1.06 0.64 1.82 0.18 0.52-0.32 1.3-0.22 1.85-0.3 1.27 0.69 2.67 0.99 3.05 2.55 0.05 0.2 0.56 0.29 0.97 0.48-0.41 0.22-0.75 0.42-1.09 0.62zm-13.9-16.1c-0.26-1.36 1.32-2.29 0.5-3.65-0.48-0.29-0.99-0.26-1.54-0.03-1.48 0.63-2.69 1.55-3.35 3.07-0.48 0.27-1.15-0.02-1.59 0.61-0.03 0.58-0.06 1.25-0.09 1.89-0.53 0.64-0.96 1.27-0.38 2.33 1.2-1.2 2.67-1.84 4.31-2.2 0.65-0.6 1.3-1.22 2.14-2.02z"/>
      <path d="m191 154c-0.17 0.32-0.32 0.62-0.44 0.85-0.75-0.17-1.49-0.3-2.21-0.51-1.9-0.55-2.94-2.35-4.64-3.26-0.93-0.49-1.58-1.53-2.04-2.61-0.34-0.8-0.95-1.49-1.47-2.27-2.41 1.04-4.27 2.68-5.79 4.59-0.77 0.97-1.73 1.64-2.58 2.48-0.4 0.4-0.84 0.76-1.3 1.17h-6.97c-3.16-0.88-4.24-3.75-5.44-6.68 0-0.97-0.01-2.09 0-3.22 0.01-0.51 0.83-3.34 1.06-3.79 1.1-2.22 2.78-4.04 4.18-6.05 0.42-0.6 1.25-0.9 1.85-1.39 0.52-0.42 0.99-0.91 1.43-1.32 0.45-0.03 0.79-0.04 1.03-0.06 1.23-0.9 2.41-1.75 3.54-2.57h3.54c2.2 1.89 4.1 4.11 5.84 6.49 0.47 0.1 0.9 0.19 1.35 0.29 1.24 1.05 2.25 2.32 3.31 3.8-0.01 1.75 0.13 3.63 1.21 5.75 0.7 0.92 1.83 1.98 3.8 2.62h2.72c0.49 0.39 1.01 0.81 1.65 1.31 0.53 0.06 1.19 0.14 1.94 0.23 0.08 0.27 0.24 0.58 0.23 0.88-0.01 0.32-0.07 0.77-0.28 0.92-0.94 0.65-0.82 1.8-1.35 2.71-1.4 0.19-2.81 0.21-4.17-0.36zm-26-7.97c1.8 0.73 3-0.13 4.17-0.95 1.27-0.89 2.42-1.99 3.75-2.76 1.11-0.64 1.89-1.53 2.8-2.38v-2.73c-0.72-1.12-1.76-1.87-3.15-2.25-1.23 1.66-2.38 3.43-3.76 5-1.37 1.56-2.06 3.64-3.82 4.89 0.01 0.33 0.01 0.66 0.01 1.18z"/>
      <path d="m218 133c1.2 0.69 2.6 1.42 3.66 2.9-0.03 1.07 0.78 2.08 0.86 3.35 0.07 1.19 0.54 2.36 0.87 3.65 1.54-0.36 2.95-1.22 4.28-2.06 1.51-0.96 3.2-1.63 4.61-2.67 1.37-1.02 3.2-1.13 4.22-2.47h1.24c0.67 0.67 1.44 1.34 2.09 2.11 0.42 0.5 0.67 1.16 1.07 1.89 0 0.99-0.11 2.13 0.03 3.25 0.14 1.08 0.53 2.13 0.85 3.34 2.63-1.69 5.65-2.63 8.48-4.02 2.08-1.02 4.34-1.64 6.5-2.49 1.14-0.45 2.21-1.04 3.33-1.5 1.23-0.51 2.31-1.36 3.76-1.29 0.39 0.02 0.79-0.36 1.2-0.53 2.26-0.9 4.49-1.81 6.91-2.24 1.25-0.22 2.58-0.56 3.6-1.57 0.45-0.45 1.17-0.63 2.08-1.1 0.35 0 1.03 0.08 1.69-0.02 0.63-0.09 1.24-0.37 1.95-0.59 0.2 0.34 0.41 0.7 0.62 1.05 0.45 0.58 1.76-0.2 1.74 1.27-0.7 0.35-1.47 0.73-2.17 1.09-0.82-0.26-1.52-0.48-2.41-0.77 0.26 0.71 0.44 1.17 0.61 1.64-0.25 0.29-0.41 0.69-0.69 0.79-2.13 0.79-3.16 3.22-5.59 3.63-0.25-0.12-0.55-0.27-0.87-0.43-0.4 0.35-0.81 0.72-1.33 1.17-0.56 0.03-1.23 0.06-1.9 0.09-0.45 0.61-0.89 1.22-1.39 1.9h-2.48c-2.15 1.46-4.07 2.76-6.12 4.15-1.83-0.08-3.4 1.05-5.06 1.92-0.58 0.3-1.21 0.62-1.66 1.08-0.74 0.78-1.64 1.07-2.64 1.32-2.1 0.52-3.82 1.72-5.36 3.19-1.46 1.41-3.2 2.39-4.91 3.36-2.28-1.69-2.43-1.91-4.32-6.24v-5.73c-0.45-0.12-0.75-0.21-1.23-0.34-0.38 0.3-0.79 0.66-1.24 0.97-0.46 0.31-0.95 0.56-1.42 0.83-0.08 0.47-0.16 0.9-0.23 1.34-1.04 0.69-2.09 1.34-3.33 1-1.75 1.41-3.4 2.75-5.04 4.07h-2.22c-0.63-0.7-1.31-1.45-2-2.21-0.51-1.59-0.93-3.16-0.92-4.88 0-1.01-0.67-2.03-1.02-3-1.27-0.09-0.71 0.95-0.69 0.92-0.94 1.58-2.18 2.17-2.52 3.46-0.08 0.29-0.38 0.67-0.66 0.75-1.8 0.51-2.12 2.16-2.82 3.52-0.25 0.49-0.5 1-0.8 1.61-0.69 0.38-1.47 0.8-2.18 1.19-0.31-0.09-0.56-0.1-0.72-0.22-1.3-0.96-2.13-2.28-2.85-3.73v-4.99c0.23-0.36 0.42-0.65 0.66-1.03v-2.86c0.48-1 1.15-1.86 1.3-2.8 0.23-1.39 1.24-2.37 1.58-3.66 1.2-1.01 1.36-2.53 1.86-3.86 0.46-1.23 0.38-1.26 1.62-2.43 1.97 0.98 1.97 0.98 3.33 3.24v3.3c0.78-0.52 1.36-1.02 2.03-1.33 0.66-0.34 0.55-1.62 2.16-1.28z"/>
    </g>
    <g id="run">
      <path d="m322 133c1.2 0.69 2.6 1.42 3.66 2.9-0.03 1.07 0.57 1.23 0.65 2.5 0.07 1.19 0.856 1.26 1.19 2.55 0.502 1.13 0.309 2.11 0.495 2.62 0.025 0.567-0.253 0.592-0.236 1.22-0.6 0.159-0.704 0.725-0.905 1.06-0.618 0.416-1.82 0.823-2.16 1.19-0.631-0.0311-0.627 0.497-1.64 0.404-0.473-0.935-0.406-0.978-1.12-1.73 0-1.01-0.888-1.55-1.24-2.52-1.27-0.09-2.51 0.0639-2.49 0.0339-0.94 1.58-1.58 1.23-1.92 2.52-0.08 0.29-0.38 0.67-0.66 0.75-1.39 2.47-1.7 4.78-2.4 6.14-0.25 0.49-0.5 1-0.8 1.61-0.69 0.38-2.5 0.853-3.21 1.24-0.31-0.09-0.56-0.1-0.72-0.22-1.3-0.96-1.5-2.91-2.22-4.36l1.18-5.21c0.23-0.36 0.42-0.65 0.66-1.03v-2.86c0.48-1 1.15-1.86 1.3-2.8 0.23-1.39 1.24-2.37 1.58-3.66 1.2-1.01 1.36-2.53 1.86-3.86 0.46-1.23 0.38-1.26 1.62-2.43 1.97 0.98 1.97 0.98 3.33 3.24v3.3c0.78-0.52 1.36-1.02 2.03-1.33 0.66-0.34 0.55-1.62 2.16-1.28z"/>
      <path d="m344 132c-0.24 0.02-0.581 0.0306-1.03 0.0606-0.44 0.41-0.91 0.9-1.43 1.32-0.6 0.49-1.43 0.791-1.85 1.39-1.4 2.01-3.08 3.83-4.18 6.05-0.23 0.45-1.05 3.28-1.06 3.79-0.01 1.13 0 2.25 0 3.22 1.2 2.93 2.28 5.8 5.44 6.68h6.97c0.46-0.41 0.901-0.772 1.3-1.17 0.85-0.84 1.81-1.51 2.58-2.48 1.52-1.91 3.38-3.55 5.79-4.59 0.52 0.78 1.13 1.47 1.47 2.27 0.46 1.08 1.11 2.12 2.04 2.61 1.7 0.91 2.74 2.71 4.64 3.26 0.72 0.21 1.46 0.34 2.21 0.51 0.12-0.23 0.269-0.53 0.439-0.85 1.36 0.57 2.77 0.551 4.17 0.361 0.53-0.91 0.41-2.06 1.35-2.71 0.21-0.15 0.269-0.6 0.279-0.92 0.01-0.3-0.149-0.611-0.229-0.881-0.75-0.09-1.41-0.169-1.94-0.229-0.64-0.5-1.16-0.921-1.65-1.31h-2.72c-1.97-0.64-3.1-1.7-3.8-2.62-1.08-2.12-1.22-4-1.21-5.75-1.06-1.48-2.07-2.75-3.31-3.8-0.45-0.1-0.88-0.191-1.35-0.291-0.236-0.322-1.21 0.946-1.45 0.63-0.883 0.653-2.31 1.56-3.46 3.34v0.125c-0.91 0.85-1.69 1.74-2.8 2.38-1.33 0.77-2.48 1.87-3.75 2.76-1.17 0.82-2.37 1.68-4.17 0.951 0-0.52 2.4e-4 -0.852-0.01-1.18 1.76-1.25 2.45-3.33 3.82-4.89 0.827-0.94 1.57-1.95 2.3-2.97-0.532-1.04-0.514-1.64-0.524-2.89 4e-3 -1.5-0.446-1.32-1.23-2.08-0.818-0.425-1.06 0.169-1.64-0.0845z"/>
      <path d="m394 133c1.2 0.69 2.6 1.42 3.66 2.9-0.03 1.07 0.78 2.08 0.86 3.35 0.07 1.19 0.54 2.36 0.87 3.65 0.0818 1.38 0.678 1.21 0.787 3.39 2.63-1.69 5.65-2.63 8.48-4.02 2.08-1.02 4.34-1.64 6.5-2.49 1.14-0.45 2.21-1.04 3.33-1.5 1.23-0.51 2.31-1.36 3.76-1.29 0.39 0.02 0.79-0.36 1.2-0.53 2.26-0.9 4.49-1.81 6.91-2.24 1.25-0.22 2.58-0.56 3.6-1.57 0.45-0.45 1.17-0.63 2.08-1.1 0.35 0 1.03 0.08 1.69-0.02 0.63-0.09 1.24-0.37 1.95-0.59 0.2 0.34 0.41 0.7 0.62 1.05 0.45 0.58 1.76-0.2 1.74 1.27-0.7 0.35-1.47 0.73-2.17 1.09-0.82-0.26-1.52-0.48-2.41-0.77 0.26 0.71 0.44 1.17 0.61 1.64-0.25 0.29-0.41 0.69-0.69 0.79-2.13 0.79-3.16 3.22-5.59 3.63-0.25-0.12-0.55-0.27-0.87-0.43-0.4 0.35-0.81 0.72-1.33 1.17-0.56 0.03-1.23 0.06-1.9 0.09-0.45 0.61-0.89 1.22-1.39 1.9h-2.48c-2.15 1.46-4.07 2.76-6.12 4.15-1.83-0.08-3.4 1.05-5.06 1.92-0.58 0.3-1.21 0.62-1.66 1.08-0.74 0.78-1.64 1.07-2.64 1.32-2.1 0.52-3.82 1.72-5.36 3.19-1.46 1.41-3.2 2.39-4.91 3.36-0.58-1.43-1.87-0.266-3.43-6.31-0.51-1.59-0.93-3.16-0.92-4.88 0-1.01-0.67-2.03-1.02-3-1.27-0.09-0.71 0.95-0.69 0.92-0.94 1.58-2.18 2.17-2.52 3.46-0.08 0.29-0.38 0.67-0.66 0.75-1.8 0.51-2.12 2.16-2.82 3.52-0.25 0.49-0.5 1-0.8 1.61-0.69 0.38-1.47 0.8-2.18 1.19-0.31-0.09-0.56-0.1-0.72-0.22-1.3-0.96-2.13-2.28-2.85-3.73v-4.99c0.23-0.36 0.42-0.65 0.66-1.03v-2.86c0.48-1 1.15-1.86 1.3-2.8 0.23-1.39 1.24-2.37 1.58-3.66 1.2-1.01 1.36-2.53 1.86-3.86 0.46-1.23 0.38-1.26 1.62-2.43 1.97 0.98 1.97 0.98 3.33 3.24v3.3c0.78-0.52 1.36-1.02 2.03-1.33 0.66-0.34 0.55-1.62 2.16-1.28z"/>
    </g>
  </g>
</svg>
