<?xml version="1.0" encoding="UTF-8" standalone="no"?>
<svg
   version="1.1"
   id="Layer_1"
   x="0px"
   y="0px"
   viewBox="0 0 450.42025 110.15208"
   xml:space="preserve"
   sodipodi:docname="combined.svg"
   width="450.42023"
   height="110.15208"
   inkscape:version="1.1.2 (0a00cf5339, 2022-02-04, custom)"
   xmlns:inkscape="http://www.inkscape.org/namespaces/inkscape"
   xmlns:sodipodi="http://sodipodi.sourceforge.net/DTD/sodipodi-0.dtd"
   xmlns="http://www.w3.org/2000/svg"
   xmlns:svg="http://www.w3.org/2000/svg"
   xmlns:rdf="http://www.w3.org/1999/02/22-rdf-syntax-ns#"
   xmlns:cc="http://creativecommons.org/ns#"
   xmlns:dc="http://purl.org/dc/elements/1.1/"><metadata
   id="metadata21"><rdf:RDF><cc:Work
       rdf:about=""><dc:format>image/svg+xml</dc:format><dc:type
         rdf:resource="http://purl.org/dc/dcmitype/StillImage" /></cc:Work></rdf:RDF></metadata><defs
   id="defs19" /><sodipodi:namedview
   pagecolor="#ffffff"
   bordercolor="#666666"
   borderopacity="1"
   objecttolerance="10"
   gridtolerance="10"
   guidetolerance="10"
   inkscape:pageopacity="0"
   inkscape:pageshadow="2"
   inkscape:window-width="3440"
   inkscape:window-height="1309"
   id="namedview17"
   showgrid="false"
   inkscape:zoom="2"
   inkscape:cx="274"
   inkscape:cy="-15"
   inkscape:window-x="0"
   inkscape:window-y="104"
   inkscape:window-maximized="0"
   inkscape:current-layer="Layer_1"
   inkscape:pagecheckerboard="1" />
<style
   type="text/css"
   id="style2">
	.st0{fill:#231F20;}
	.st1{fill:#FFAFF3;}
	.st2{fill:#282828;}
	.st3{fill:none;stroke:#FFAFF3;stroke-miterlimit:10;}
	.st4{fill:#DFF656;}
	.st5{fill:none;stroke:#DFF656;stroke-miterlimit:10;}
	.st6{fill:#00F0F2;}
	.st7{fill:none;stroke:#00F0F2;stroke-miterlimit:10;}
	.st8{fill:#FFFFFF;}
	.st9{fill:none;stroke:#FFFFFF;stroke-width:2;stroke-miterlimit:10;}
</style>

<style
   type="text/css"
   id="style1721">	.st0{fill:#231F20;}	.st1{fill:#FFAFF3;}	.st2{fill:#282828;}	.st3{fill:none;stroke:#FFAFF3;stroke-miterlimit:10;}	.st4{fill:#DFF656;}	.st5{fill:none;stroke:#DFF656;stroke-miterlimit:10;}	.st6{fill:#00F0F2;}	.st7{fill:none;stroke:#00F0F2;stroke-miterlimit:10;}	.st8{fill:#FFFFFF;}	.st9{fill:none;stroke:#FFFFFF;stroke-width:2;stroke-miterlimit:10;}</style><style
   type="text/css"
   id="style6082">	.st0{fill:#231F20;}	.st1{fill:#FFAFF3;}	.st2{fill:#282828;}	.st3{fill:none;stroke:#FFAFF3;stroke-miterlimit:10;}	.st4{fill:#DFF656;}	.st5{fill:none;stroke:#DFF656;stroke-miterlimit:10;}	.st6{fill:#00F0F2;}	.st7{fill:none;stroke:#00F0F2;stroke-miterlimit:10;}	.st8{fill:#FFFFFF;}	.st9{fill:none;stroke:#FFFFFF;stroke-width:2;stroke-miterlimit:10;}</style><g
   id="g848"><g
     id="g1733"
     transform="matrix(0.65606171,0,0,0.65606171,264.59013,-41.833551)"
     style="fill:#282828;fill-opacity:1;stroke-width:1.52425">	<path
   class="st2"
   d="m 163.25,147.38 c -1.36,0.52 -2.1,0.93 -2.9,1.08 -2.25,0.43 -4.52,0.72 -6.77,1.15 -0.78,0.15 -1.5,0.69 -2.28,0.76 -0.8,0.07 -1.63,-0.21 -2.78,-0.39 -0.51,-0.41 -1.29,-1.04 -2.18,-1.75 0.32,-1.34 0.97,-2.67 0.41,-3.97 0.77,-1.49 1.47,-2.86 2.24,-4.35 1.28,-0.21 2.55,-0.38 3.79,-0.62 0.97,-0.19 1.91,-0.34 2.8,-0.94 1.09,-0.74 2.37,-0.88 3.43,-0.35 0.94,-0.31 1.85,-0.95 2.47,-0.74 1.3,0.44 2.52,0.29 3.78,0.14 1.54,-0.18 3.06,-0.71 4.6,0.08 0.33,0.17 0.84,-0.02 1.27,-0.07 1.42,-0.17 2.89,-0.67 4.24,-0.44 1.29,0.22 2.51,0.17 3.78,0.17 0.68,0 1.36,0.23 2.1,0.37 0.81,-0.36 1.69,-0.74 2.63,-1.16 0.79,0.45 1.53,0.86 2.27,1.28 0.79,-1.03 2.12,-1.39 3.06,-1.03 1.33,0.51 2.51,0.17 3.76,0.18 0.55,0 1.1,0.18 1.83,0.3 0.16,-0.11 0.5,-0.33 0.99,-0.66 1.22,0.38 2.6,0.47 4.01,0.17 1.26,-0.27 2.54,-0.4 3.83,-0.52 1.4,-0.13 2.8,-0.59 4.19,0.15 0.38,0.2 1.1,-0.21 2.26,-0.96 1.67,1 3.36,-0.1 5.26,0.12 0.95,1.41 2.5,-0.12 3.88,0.45 1.26,0.53 2.72,0.58 4.1,0.84 0.51,0.68 1.02,1.34 1.63,2.14 -0.12,0.42 -0.26,0.96 -0.43,1.55 0.18,0.23 0.41,0.54 0.65,0.86 -0.11,0.1 -0.22,0.28 -0.32,0.27 -0.82,-0.08 -1.63,-0.23 -2.45,-0.3 -0.27,-0.03 -0.6,0.01 -0.84,0.14 -1.11,0.58 -2.2,1.19 -3.36,1.83 -1.23,-0.31 -2.55,-0.65 -3.96,-1 -0.78,0.75 -1.48,1.43 -2.21,2.12 -0.68,0.1 -1.39,0.21 -2.14,0.32 -1.03,-0.34 -2.1,-0.69 -3.3,-1.09 -0.25,0.15 -0.59,0.39 -0.96,0.54 -0.64,0.26 -1.29,0.57 -1.96,0.68 -2.68,0.44 -5.37,0.82 -8.07,1.22 -0.55,-0.19 -1.08,-0.38 -1.56,-0.55 -3.69,0.32 -7.29,1.38 -11.33,1.09 0,0 -0.34,0.26 -0.77,0.6 -0.49,-0.15 -1.02,-0.31 -1.85,-0.57 -0.83,0.12 -1.95,0.3 -3.08,0.46 -1.28,0.18 -2.57,0.26 -3.82,0.54 -1.03,0.23 -2.13,-0.77 -3.08,0.23 -1.24,-0.76 -2.51,-0.1 -3.76,-0.06 -1.11,0.02 -2.27,0.58 -3.1,-0.31 z"
   id="path1723"
   style="fill:#282828;fill-opacity:1;stroke-width:1.52425" />	<path
   class="st2"
   d="m 80.26,211.47 c -0.55,-0.26 -0.92,-0.44 -1.28,-0.61 -0.48,0.58 -0.93,1.13 -1.38,1.68 -0.4,-0.18 -0.77,-0.35 -1.29,-0.59 -0.96,0.65 -1.99,1.35 -3.02,2.05 -0.39,-0.54 -0.79,-1.1 -1.27,-1.76 0.27,-0.79 0.59,-1.69 0.78,-2.26 0.31,-0.4 0.38,-0.54 0.49,-0.62 2.27,-1.65 4.58,-3.21 6.42,-5.43 1.14,-1.38 2.8,-2.32 4.25,-3.43 1.23,-0.94 2.57,-1.74 3.48,-3.06 0.31,-0.45 0.77,-0.81 1.21,-1.14 2.35,-1.79 4.57,-3.71 6.81,-5.63 2.13,-1.82 4.3,-3.61 6.44,-5.43 2.77,-2.37 5.71,-4.56 8.44,-6.98 3.89,-3.45 8.11,-6.51 11.84,-10.16 1.5,-1.47 2.94,-3.02 4.53,-4.41 1.59,-1.39 2.96,-3.04 4.33,-4.67 1.03,-1.22 2.15,-2.21 3.77,-2.59 1.55,1.27 2.85,2.68 3.95,4.41 -0.13,1.23 -0.27,2.6 -0.48,4.6 -0.87,1.36 -2.07,3.28 -4.02,4.58 -0.48,1.21 -2.26,1.33 -2.39,2.83 -1,0.77 -2.03,1.5 -2.98,2.32 -0.96,0.83 -1.83,1.74 -2.74,2.62 -0.31,0.3 -0.55,0.68 -0.91,0.88 -3.09,1.73 -5.48,4.38 -8.35,6.39 -1.49,1.05 -2.89,2.19 -4.11,3.57 -1.15,1.31 -2.69,2 -4.4,2.15 -0.39,0.79 -0.64,1.62 -1.15,2.23 -0.53,0.63 -1.33,1.03 -2.03,1.53 -0.23,-0.1 -0.49,-0.22 -0.77,-0.34 -0.56,0.37 -1.13,0.74 -1.81,1.2 0.01,1.98 -1.68,2.73 -3.1,3.54 -0.94,0.53 -2.21,0.33 -3.08,1.28 -0.75,0.82 -1.69,1.47 -2.57,2.23 -1.44,0.28 -2.91,0.61 -3.84,1.99 0.18,0.23 0.36,0.45 0.56,0.71 -0.88,0.87 -2.1,0.52 -3.08,0.94 -2.87,1.24 -4.67,3.95 -7.25,5.38 z"
   id="path1725"
   style="fill:#282828;fill-opacity:1;stroke-width:1.52425" />	<path
   class="st2"
   d="m 73.67,106.67 c -0.24,-0.57 -0.4,-0.97 -0.58,-1.4 -0.34,-0.21 -0.69,-0.6 -1.07,-0.64 -2.78,-0.32 -4.24,-2.02 -4.97,-4.55 -0.03,-0.12 -0.18,-0.21 -0.28,-0.31 -1.45,-0.67 -1.45,-0.67 -3.19,-0.55 -1.3,-0.96 -1.75,-2.5 -2.61,-3.73 -0.85,-1.23 -1.63,-2.55 -2.7,-3.6 0.22,-0.31 0.34,-0.65 0.55,-0.72 1.21,-0.42 2.44,-0.78 3.53,-1.11 0.71,0.43 1.27,0.82 1.88,1.11 0.5,0.24 1.28,0.18 1.54,0.54 0.72,0.99 1.92,1.06 2.78,1.72 0.3,0.23 0.39,0.74 0.58,1.14 3.23,0.79 5.85,2.72 8.48,4.86 0.16,0.39 0.38,0.91 0.6,1.42 2.36,0.21 4.17,1.62 6.07,2.8 0.83,0.52 1.52,1.3 2.4,1.71 3.61,1.72 6.5,4.49 9.83,6.62 1.44,1.82 3.78,2.47 5.32,4.13 1.49,1.6 3.48,2.43 5.28,3.55 0.24,0.15 0.52,0.26 0.73,0.45 2.98,2.61 6.21,4.88 9.47,7.12 1.14,0.78 2.01,1.97 3.09,3.05 0.01,0.99 0.02,2.1 0.04,3.57 -0.51,1.94 -1.92,3.65 -3.99,5.17 -0.8,-0.05 -1.77,-0.12 -2.96,-0.2 -0.2,-0.38 -0.34,-1.01 -0.73,-1.32 -1.78,-1.37 -3.15,-3.21 -5.05,-4.44 -0.71,-0.46 -1.51,-0.87 -2.05,-1.5 -1.32,-1.52 -2.84,-2.73 -4.48,-3.34 -0.41,-0.77 -0.67,-1.27 -0.75,-1.44 -1.5,-1.18 -2.73,-2.13 -3.93,-3.1 -2.4,-1.94 -5.25,-3.32 -7.2,-5.82 -2.12,-0.88 -3.45,-2.93 -5.62,-3.73 -2.74,-2.42 -6.14,-3.98 -8.74,-6.61 -0.4,-0.39 -0.94,-0.63 -1.27,-0.85 z"
   id="path1727"
   style="fill:#282828;fill-opacity:1;stroke-width:1.52425" />	<path
   class="st2"
   d="m 143.66,214.82 c -0.37,0.87 -0.69,1.64 -1,2.36 -1.11,0.52 -1.98,0.22 -3,-0.95 -0.19,-0.86 -0.45,-2.09 -0.74,-3.42 -0.86,-0.44 -1.7,-0.88 -2.6,-1.34 0.16,-0.65 0.32,-1.31 0.48,-1.96 -0.21,-0.97 -1.21,-1.16 -1.87,-2 -0.22,-1.47 -0.47,-3.16 -0.74,-5.02 0.14,-0.45 0.35,-1.09 0.55,-1.72 -0.96,-0.38 -1.72,-0.67 -2.57,-1.01 -0.33,-1.41 -0.66,-2.78 -1.05,-4.44 -0.54,-0.81 -1.24,-1.85 -2.04,-3.04 -0.17,-1.37 -0.81,-2.76 -1.37,-4.21 -2.05,-5.35 -3.8,-10.82 -6.65,-15.83 -0.34,-3.11 -2.96,-5.05 -4.09,-7.78 -0.44,-1.08 -1.78,-1.79 -2.63,-2.6 -0.4,-1.12 -0.77,-2.17 -1.22,-3.43 1.13,-2.94 4.04,-4.14 6.84,-5.46 0.67,0.21 1.34,0.43 2.19,0.7 1.13,1.57 2.37,3.28 3.59,5 1.23,1.73 2.11,3.72 2.52,5.7 0.36,1.72 1.61,3.01 1.74,4.73 1.82,2.21 1.93,5.24 3.59,7.54 0.23,0.32 0.29,0.82 0.3,1.24 0.05,2.9 2.11,5.27 2.17,8.17 1.62,1.31 0.79,3.57 1.97,5.04 1.1,1.37 0.37,3.46 1.89,4.64 0.32,1.83 0.62,3.67 0.96,5.49 0.23,1.24 0.14,2.57 1.15,3.59 0.25,0.26 0.25,0.8 0.31,1.21 0.45,2.84 0.86,5.67 1.32,8.8 z"
   id="path1729"
   style="fill:#282828;fill-opacity:1;stroke-width:1.52425" />	<path
   class="st2"
   d="m 149.83,66.04 c 1,0.38 1.65,0.63 2.3,0.88 0.64,0.91 0.4,1.84 0.06,2.78 0.18,0.22 0.37,0.44 0.55,0.66 -0.3,0.93 -0.6,1.87 -0.91,2.83 0.14,0.17 0.52,0.44 0.48,0.6 -0.59,2.28 0.05,4.74 -1.01,6.92 -0.43,0.89 0.02,1.67 0.02,2.49 0,0.84 -0.69,1.55 -0.42,2.48 0.15,0.52 0.1,1.13 -0.01,1.67 -0.2,0.93 -0.53,1.83 -0.8,2.75 1.02,0.89 -0.19,1.77 -0.07,2.73 0.1,0.83 -0.68,1.78 -1.12,2.79 0.74,1.32 -0.25,2.63 -0.36,4.02 -0.16,2.09 -0.49,4.18 -1.32,6.13 -0.85,1.97 -0.5,4.13 -1.05,6.16 -0.81,2.95 -1.26,5.99 -1.96,8.97 -0.99,4.21 -3.05,7.89 -6.1,11.1 -1.63,0.24 -3.31,0.49 -5.32,0.79 -0.67,-0.48 -1.47,-1.05 -2.17,-1.55 0.48,-2.26 0.78,-4.1 1.72,-5.92 1.27,-2.44 2.41,-4.99 2.65,-7.9 0.16,-1.91 1.1,-3.77 1.78,-5.62 0.54,-1.46 0.98,-2.89 0.92,-4.51 -0.04,-0.94 0.35,-1.92 0.65,-2.84 0.55,-1.74 1.17,-3.46 1.83,-5.42 0.23,-0.19 0.66,-0.53 1.23,-0.99 -0.19,-0.44 -0.39,-0.93 -0.68,-1.61 0,-0.01 0.02,-0.27 0.09,-0.51 0.21,-0.66 0.55,-1.3 0.66,-1.97 0.19,-1.16 0.95,-2.03 1.36,-3.06 0.34,-0.85 0.27,-1.87 0.48,-3.6 -0.03,-0.31 -1.84,-0.78 -0.58,-2.67 -0.06,0.05 0.36,-0.3 0.79,-0.66 -0.18,-0.22 -0.36,-0.45 -0.56,-0.7 0.37,-0.99 0.58,-2.02 1.12,-3.03 1.11,-2.08 2.25,-4.27 1.55,-6.87 0.42,-0.68 0.87,-1.4 1.33,-2.16 -0.11,-1.11 -0.23,-2.23 -0.34,-3.32 0.28,-0.42 0.52,-0.78 0.9,-1.35 0.61,-0.12 1.43,-0.3 2.31,-0.49 z"
   id="path1731"
   style="fill:#282828;fill-opacity:1;stroke-width:1.52425" /></g><g
     id="g6094"
     transform="matrix(0.9658159,0,0,0.9658159,8.2856222,-79.709315)"
     style="stroke-width:1.03539">	<path
   class="st2"
   d="m 103.73,147.92 c -0.47,0.13 -0.77,0.22 -1.08,0.31 0.02,0.6 0.04,1.16 0.06,1.72 -0.33,0.1 -0.64,0.19 -1.07,0.32 -0.23,0.89 -0.48,1.84 -0.73,2.8 -0.51,-0.12 -1.05,-0.24 -1.68,-0.38 -0.25,-0.61 -0.53,-1.31 -0.71,-1.75 -0.02,-0.4 -0.06,-0.52 -0.03,-0.63 0.49,-2.17 1.05,-4.3 0.97,-6.59 -0.05,-1.41 0.45,-2.85 0.74,-4.26 0.24,-1.2 0.62,-2.38 0.47,-3.64 -0.05,-0.43 0.04,-0.88 0.12,-1.32 0.46,-2.29 0.78,-4.6 1.11,-6.91 0.31,-2.2 0.67,-4.4 0.98,-6.6 0.41,-2.86 1.01,-5.7 1.36,-8.56 0.51,-4.09 1.42,-8.11 1.72,-12.24 0.12,-1.66 0.17,-3.33 0.38,-4.99 0.21,-1.66 0.17,-3.36 0.13,-5.04 -0.03,-1.27 0.12,-2.44 0.88,-3.51 1.59,-0.06 3.1,0.1 4.66,0.56 0.57,0.8 1.2,1.69 2.12,2.98 0.19,1.26 0.49,3.03 0,4.83 0.35,0.97 -0.65,1.97 0.06,2.93 -0.19,0.98 -0.42,1.95 -0.56,2.94 -0.14,0.99 -0.18,2 -0.26,2.99 -0.03,0.33 0.03,0.7 -0.08,1 -0.93,2.65 -0.97,5.47 -1.62,8.17 -0.34,1.41 -0.57,2.81 -0.57,4.27 0,1.38 -0.55,2.59 -1.5,3.58 0.18,0.67 0.47,1.3 0.48,1.93 0.01,0.65 -0.25,1.31 -0.4,1.97 -0.19,0.06 -0.41,0.13 -0.64,0.2 -0.14,0.51 -0.28,1.03 -0.45,1.66 1.04,1.17 0.43,2.5 0.01,3.73 -0.28,0.81 -1.14,1.35 -1.16,2.37 -0.02,0.88 -0.23,1.76 -0.36,2.67 -0.71,0.92 -1.41,1.89 -1.24,3.19 0.23,0.04 0.45,0.08 0.7,0.13 -0.07,0.97 -0.98,1.41 -1.34,2.17 -1.03,2.25 -0.68,4.8 -1.47,7 z"
   id="path6084"
   style="stroke-width:1.03539" />	<path
   class="st2"
   d="m 36.82,184.59 c 1.34,-1.04 2.43,-2.04 4.02,-2.03 0.63,-0.54 1.54,-0.42 2.18,-0.8 3.26,-1.95 7.16,-2.46 10.35,-4.57 0.25,-0.16 0.66,-0.06 1.19,-0.1 0.78,-0.74 1.68,-1.59 2.3,-2.18 3.11,-1.81 6.03,-3.17 8.37,-5.54 1.25,-1.27 2.82,-2.2 4.1,-3.48 1.36,-1.37 2.53,-2.86 3.64,-4.41 0.72,-1 1.42,-2.01 2.3,-3.27 0.02,-0.13 0.08,-0.57 0.14,-1.02 1.56,-1.8 1.89,-4.25 3.21,-6.18 0.06,-2.12 1.23,-3.99 1.56,-5.86 -0.63,-0.74 -1.21,-0.82 -1.72,-0.54 -1.65,0.93 -3.36,1.72 -5.16,2.33 -0.42,0.14 -0.84,0.33 -1.2,0.57 -0.92,0.62 -1.92,1.18 -2.7,1.96 -0.78,0.79 -2.16,0.02 -2.54,1.23 -0.95,-0.05 -1.74,-0.08 -2.64,-0.13 -0.27,-0.24 -0.58,-0.58 -0.94,-0.83 -0.8,-0.55 -1.1,-1.46 -1.41,-2.26 -0.76,-2 -1.04,-4.12 -0.72,-6.58 0.29,-0.38 0.93,-0.94 1.19,-1.64 1.11,-2.98 3.23,-5.32 4.93,-7.92 0.31,-0.47 0.67,-0.95 1.12,-1.26 1.82,-1.28 3.31,-3.02 5.55,-3.92 0.42,0 0.99,0 1.52,0 0.22,0.14 0.44,0.23 0.6,0.38 0.74,0.7 1.47,1.41 2.19,2.14 0.63,0.65 1.48,1.23 1.77,2.01 0.36,0.99 1.41,1.42 1.61,2.53 0.1,0.56 0.94,0.94 1.31,1.5 0.52,0.77 1.53,0.84 2.04,1.69 0.37,0.62 1.15,0.99 1.88,1.57 0.04,1.72 0.09,3.51 0.11,5.31 0.02,1.81 0,3.63 0,5.31 -1.61,2.47 -2.3,5.18 -3.39,7.71 -0.44,1.02 -0.96,1.99 -1.35,3.02 -0.35,0.94 -1.12,1.34 -1.91,1.75 -0.24,0.49 -0.49,0.99 -0.74,1.5 0.1,0.15 0.22,0.34 0.35,0.54 -0.84,1.39 -1.58,2.88 -3.16,3.63 -0.26,1.65 -2.04,1.89 -2.86,3.07 -0.76,1.1 -1.82,1.99 -2.76,2.96 -0.06,0.07 -0.18,0.08 -0.28,0.12 -0.19,-0.12 -0.39,-0.23 -0.87,-0.52 -0.61,0.71 -1.54,1.38 -1.85,2.27 -0.36,1.05 -1.74,1.06 -1.84,2.24 -0.83,0.56 -2.08,-0.12 -2.79,0.85 -1.17,0.1 -2.26,0.31 -2.54,1.71 -0.8,0.58 -1.61,1.16 -2.46,1.77 -0.6,0.04 -1.26,0.07 -1.92,0.11 -0.18,0.35 -0.34,0.65 -0.48,0.93 -1.01,0.41 -2.07,0.73 -3.02,1.25 -0.96,0.54 -2.13,0.45 -3,1.39 -0.71,0.76 -1.93,1.05 -2.95,1.56 -0.36,-0.14 -0.76,-0.3 -1.23,-0.49 -0.53,0.44 -1.05,0.87 -1.64,1.36 -0.59,0 -1.25,0 -1.85,0 -0.59,0.49 -1.11,0.92 -1.61,1.34 -0.6,0.03 -1.17,0.07 -1.79,0.1 -0.4,0.32 -0.83,0.69 -1.29,1.02 -0.17,0.12 -0.41,0.16 -0.61,0.23 -1.47,0.46 -2.92,1.16 -4.42,1.31 -1.46,0.14 -2.65,1.55 -4.02,0.64 -1.14,0.55 -2.03,0.99 -3.12,1.52 -0.82,0 -1.84,0 -2.82,0 -0.49,0.4 -0.93,0.75 -1.48,1.21 -1.28,0.25 -2.84,-0.28 -4.11,0.72 -1.01,0.01 -2.03,0.06 -3.04,0.01 -0.63,-0.03 -1.25,-0.31 -1.87,-0.3 -0.53,0.01 -1.06,0.28 -1.88,0.52 -0.28,0.22 -0.81,0.64 -1.44,1.14 -1.36,0 -2.82,0 -4.35,0 -1.03,-0.51 -2.12,-1.05 -3.17,-1.56 0.17,-0.44 0.33,-0.85 0.55,-1.4 -0.7,-0.24 -1.29,-0.44 -1.9,-0.65 3.26,-1.27 3.26,-1.27 5.18,-0.49 0.76,-0.04 1.11,-0.71 1.75,-1.14 1.3,-0.26 2.72,-0.77 4.12,-0.75 1.5,0.02 2.78,-0.9 4.25,-0.74 1.3,-0.86 2.79,-0.64 4.23,-0.78 0.86,-0.09 1.82,-0.32 2.49,-0.81 0.92,-0.67 2.06,-0.05 2.88,-0.76 0.76,-0.66 1.76,-0.15 2.58,-0.57 0.99,-0.5 1.9,-1.2 3.1,-1.17 1.13,0.03 2.09,-0.65 3.23,-0.79 0.89,-0.08 1.81,-0.65 2.95,-0.59 z m 40.7,-47.18 c -0.59,-1.47 -1.07,-2.57 -1.46,-3.7 -0.17,-0.48 -0.37,-0.78 -0.94,-0.74 -2.2,1.74 -3.82,3.99 -5.09,6.49 -0.11,0.22 0.09,0.59 0.18,1.07 2.44,-1.05 4.76,-2.03 7.31,-3.12 z"
   id="path6086"
   style="stroke-width:1.03539" />	<path
   class="st2"
   d="m 217.84,132.78 c 1.2,0.69 2.6,1.42 3.66,2.9 -0.03,1.07 0.78,2.08 0.86,3.35 0.07,1.19 0.54,2.36 0.87,3.65 1.54,-0.36 2.95,-1.22 4.28,-2.06 1.51,-0.96 3.2,-1.63 4.61,-2.67 1.37,-1.02 3.2,-1.13 4.22,-2.47 0.45,0 0.79,0 1.24,0 0.67,0.67 1.44,1.34 2.09,2.11 0.42,0.5 0.67,1.16 1.07,1.89 0,0.99 -0.11,2.13 0.03,3.25 0.14,1.08 0.53,2.13 0.85,3.34 2.63,-1.69 5.65,-2.63 8.48,-4.02 2.08,-1.02 4.34,-1.64 6.5,-2.49 1.14,-0.45 2.21,-1.04 3.33,-1.5 1.23,-0.51 2.31,-1.36 3.76,-1.29 0.39,0.02 0.79,-0.36 1.2,-0.53 2.26,-0.9 4.49,-1.81 6.91,-2.24 1.25,-0.22 2.58,-0.56 3.6,-1.57 0.45,-0.45 1.17,-0.63 2.08,-1.1 0.35,0 1.03,0.08 1.69,-0.02 0.63,-0.09 1.24,-0.37 1.95,-0.59 0.2,0.34 0.41,0.7 0.62,1.05 0.45,0.58 1.76,-0.2 1.74,1.27 -0.7,0.35 -1.47,0.73 -2.17,1.09 -0.82,-0.26 -1.52,-0.48 -2.41,-0.77 0.26,0.71 0.44,1.17 0.61,1.64 -0.25,0.29 -0.41,0.69 -0.69,0.79 -2.13,0.79 -3.16,3.22 -5.59,3.63 -0.25,-0.12 -0.55,-0.27 -0.87,-0.43 -0.4,0.35 -0.81,0.72 -1.33,1.17 -0.56,0.03 -1.23,0.06 -1.9,0.09 -0.45,0.61 -0.89,1.22 -1.39,1.9 -0.92,0 -1.81,0 -2.48,0 -2.15,1.46 -4.07,2.76 -6.12,4.15 -1.83,-0.08 -3.4,1.05 -5.06,1.92 -0.58,0.3 -1.21,0.62 -1.66,1.08 -0.74,0.78 -1.64,1.07 -2.64,1.32 -2.1,0.52 -3.82,1.72 -5.36,3.19 -1.46,1.41 -3.2,2.39 -4.91,3.36 -2.28,-1.69 -2.43,-1.91 -4.32,-6.24 0,-1.66 0,-3.68 0,-5.73 -0.45,-0.12 -0.75,-0.21 -1.23,-0.34 -0.38,0.3 -0.79,0.66 -1.24,0.97 -0.46,0.31 -0.95,0.56 -1.42,0.83 -0.08,0.47 -0.16,0.9 -0.23,1.34 -1.04,0.69 -2.09,1.34 -3.33,1 -1.75,1.41 -3.4,2.75 -5.04,4.07 -0.7,0 -1.37,0 -2.22,0 -0.63,-0.7 -1.31,-1.45 -2,-2.21 -0.51,-1.59 -0.93,-3.16 -0.92,-4.88 0,-1.01 -0.67,-2.03 -1.02,-3 -1.27,-0.09 -0.71,0.95 -0.69,0.92 -0.94,1.58 -2.18,2.17 -2.52,3.46 -0.08,0.29 -0.38,0.67 -0.66,0.75 -1.8,0.51 -2.12,2.16 -2.82,3.52 -0.25,0.49 -0.5,1 -0.8,1.61 -0.69,0.38 -1.47,0.8 -2.18,1.19 -0.31,-0.09 -0.56,-0.1 -0.72,-0.22 -1.3,-0.96 -2.13,-2.28 -2.85,-3.73 0,-1.67 0,-3.37 0,-4.99 0.23,-0.36 0.42,-0.65 0.66,-1.03 0,-0.92 0,-1.93 0,-2.86 0.48,-1 1.15,-1.86 1.3,-2.8 0.23,-1.39 1.24,-2.37 1.58,-3.66 1.2,-1.01 1.36,-2.53 1.86,-3.86 0.46,-1.23 0.38,-1.26 1.62,-2.43 1.97,0.98 1.97,0.98 3.33,3.24 0,0.92 0,2.04 0,3.3 0.78,-0.52 1.36,-1.02 2.03,-1.33 0.66,-0.34 0.55,-1.62 2.16,-1.28 z"
   id="path6088"
   style="stroke-width:1.03539" />	<path
   class="st2"
   d="m 191.15,154.02 c -0.17,0.32 -0.32,0.62 -0.44,0.85 -0.75,-0.17 -1.49,-0.3 -2.21,-0.51 -1.9,-0.55 -2.94,-2.35 -4.64,-3.26 -0.93,-0.49 -1.58,-1.53 -2.04,-2.61 -0.34,-0.8 -0.95,-1.49 -1.47,-2.27 -2.41,1.04 -4.27,2.68 -5.79,4.59 -0.77,0.97 -1.73,1.64 -2.58,2.48 -0.4,0.4 -0.84,0.76 -1.3,1.17 -2.25,0 -4.52,0 -6.97,0 -3.16,-0.88 -4.24,-3.75 -5.44,-6.68 0,-0.97 -0.01,-2.09 0,-3.22 0.01,-0.51 0.83,-3.34 1.06,-3.79 1.1,-2.22 2.78,-4.04 4.18,-6.05 0.42,-0.6 1.25,-0.9 1.85,-1.39 0.52,-0.42 0.99,-0.91 1.43,-1.32 0.45,-0.03 0.79,-0.04 1.03,-0.06 1.23,-0.9 2.41,-1.75 3.54,-2.57 1.23,0 2.35,0 3.54,0 2.2,1.89 4.1,4.11 5.84,6.49 0.47,0.1 0.9,0.19 1.35,0.29 1.24,1.05 2.25,2.32 3.31,3.8 -0.01,1.75 0.13,3.63 1.21,5.75 0.7,0.92 1.83,1.98 3.8,2.62 0.58,0 1.6,0 2.72,0 0.49,0.39 1.01,0.81 1.65,1.31 0.53,0.06 1.19,0.14 1.94,0.23 0.08,0.27 0.24,0.58 0.23,0.88 -0.01,0.32 -0.07,0.77 -0.28,0.92 -0.94,0.65 -0.82,1.8 -1.35,2.71 -1.4,0.19 -2.81,0.21 -4.17,-0.36 z m -26.04,-7.97 c 1.8,0.73 3,-0.13 4.17,-0.95 1.27,-0.89 2.42,-1.99 3.75,-2.76 1.11,-0.64 1.89,-1.53 2.8,-2.38 0,-0.93 0,-1.81 0,-2.73 -0.72,-1.12 -1.76,-1.87 -3.15,-2.25 -1.23,1.66 -2.38,3.43 -3.76,5 -1.37,1.56 -2.06,3.64 -3.82,4.89 0.01,0.33 0.01,0.66 0.01,1.18 z"
   id="path6090"
   style="stroke-width:1.03539" />	<path
   class="st2"
   d="m 148.92,147.94 c 0.03,0.5 0.82,0.85 0.28,1.46 -1.57,0.56 -3.11,1.25 -4.74,0.99 -0.63,0.5 -1.16,0.92 -1.74,1.37 -0.43,0 -0.88,-0.01 -1.34,0 -1.02,0.02 -2.19,-0.26 -3.02,0.15 -0.98,0.49 -2.08,0.23 -2.89,0.69 -1.21,0.7 -2.42,0.37 -3.33,0.47 -2.33,-0.22 -3.78,-1.86 -5.77,-2.24 -0.64,-0.12 -1.25,-0.42 -2.08,-0.7 -1.08,-1.02 -2.32,-2.18 -3.38,-3.18 -0.1,-0.99 -0.17,-1.66 -0.23,-2.28 -0.38,-0.48 -0.73,-0.92 -1.1,-1.39 0,-0.88 -0.02,-1.78 0.02,-2.67 0.01,-0.2 0.21,-0.39 0.33,-0.59 -0.15,-0.82 -0.91,-1.59 -0.21,-2.47 0.55,-0.68 0.4,-1.5 0.48,-2.27 1.19,-2.1 3.12,-3.79 3.46,-6.17 1.6,-1.44 3.12,-2.76 4.58,-4.14 1.09,-1.03 2.24,-1.78 3.83,-1.8 0.62,-0.01 1.25,-0.41 1.91,-0.64 1.73,0.33 3.36,0.97 5.19,2.71 0.16,0.23 0.73,1.05 1.35,1.92 -0.32,1.53 1.23,2.86 0.52,4.65 -0.25,0.3 -0.62,0.72 -1.04,1.21 0.71,0.83 0.43,1.83 0.49,2.66 -2.06,2.68 -4.6,4.47 -7.44,5.91 -1.36,0.69 -2.6,1.6 -3.92,2.43 0.22,0.23 0.45,0.47 0.8,0.85 1.68,0.17 3.48,0.13 5.29,0.14 1.25,0 2.5,0.02 3.74,-0.08 0.64,-0.05 1.32,-0.58 1.88,-0.45 0.56,0.13 0.96,0.3 1.48,-0.07 0.59,-0.42 1.06,0.64 1.82,0.18 0.52,-0.32 1.3,-0.22 1.85,-0.3 1.27,0.69 2.67,0.99 3.05,2.55 0.05,0.2 0.56,0.29 0.97,0.48 -0.41,0.22 -0.75,0.42 -1.09,0.62 z M 135.03,131.8 c -0.26,-1.36 1.32,-2.29 0.5,-3.65 -0.48,-0.29 -0.99,-0.26 -1.54,-0.03 -1.48,0.63 -2.69,1.55 -3.35,3.07 -0.48,0.27 -1.15,-0.02 -1.59,0.61 -0.03,0.58 -0.06,1.25 -0.09,1.89 -0.53,0.64 -0.96,1.27 -0.38,2.33 1.2,-1.2 2.67,-1.84 4.31,-2.2 0.65,-0.6 1.3,-1.22 2.14,-2.02 z"
   id="path6092"
   style="stroke-width:1.03539" /></g></g></svg>
